<svg xmlns="http://www.w3.org/2000/svg" viewBox="0 0 288.0 92.8" width="288.0" height="92.8">
  <g transform="translate(24, 60.800000000000004) scale(0.040000, -0.040000)" fill="#4ADE80">
    <path transform="translate(0, 0)" d="M85 65V152L395 304Q414 313 430.5 319.5Q447 326 455 328Q446 330 429.0 337.0Q412 344 395 352L85 505V595L515 380V280Z"/>
    <path transform="translate(600, 0)" d=""/>
    <path transform="translate(1200, 0)" d="M268 -10Q186 -10 136.5 45.0Q87 100 87 194V355Q87 450 136.0 505.0Q185 560 268 560Q330 560 370.5 529.0Q411 498 419 445H420L418 570V730H508V0H418V105H417Q410 51 370.0 20.5Q330 -10 268 -10ZM298 68Q354 68 386.0 103.0Q418 138 418 200V350Q418 412 386.0 447.0Q354 482 298 482Q241 482 209.0 452.5Q177 423 177 355V195Q177 128 209.0 98.0Q241 68 298 68Z"/>
    <path transform="translate(1800, 0)" d="M300 -10Q203 -10 143.5 48.5Q84 107 84 210V340Q84 443 143.5 501.5Q203 560 300 560Q365 560 413.5 534.0Q462 508 489.0 461.0Q516 414 516 350V252H172V200Q172 139 207.0 103.5Q242 68 300 68Q350 68 382.5 87.5Q415 107 422 140H512Q503 71 445.0 30.5Q387 -10 300 -10ZM172 322H428V350Q428 415 394.5 450.5Q361 486 300 486Q239 486 205.5 450.5Q172 415 172 350Z"/>
    <path transform="translate(2400, 0)" d="M380 0Q307 0 263.5 42.5Q220 85 220 155V648H30V730H310V155Q310 121 329.0 101.5Q348 82 380 82H550V0Z"/>
    <path transform="translate(3000, 0)" d="M300 -10Q203 -10 143.5 48.5Q84 107 84 210V340Q84 443 143.5 501.5Q203 560 300 560Q365 560 413.5 534.0Q462 508 489.0 461.0Q516 414 516 350V252H172V200Q172 139 207.0 103.5Q242 68 300 68Q350 68 382.5 87.5Q415 107 422 140H512Q503 71 445.0 30.5Q387 -10 300 -10ZM172 322H428V350Q428 415 394.5 450.5Q361 486 300 486Q239 486 205.5 450.5Q172 415 172 350Z"/>
    <path transform="translate(3600, 0)" d="M161 -180V-98H316Q363 -98 390.0 -71.5Q417 -45 417 0V50L419 140H416Q408 91 369.0 64.5Q330 38 271 38Q186 38 137.0 92.0Q88 146 88 240V356Q88 450 137.0 505.0Q186 560 271 560Q330 560 369.0 532.0Q408 504 416 455H418V550H507V0Q507 -83 455.5 -131.5Q404 -180 315 -180ZM298 113Q354 113 386.0 148.0Q418 183 418 245V350Q418 412 386.0 447.0Q354 482 298 482Q241 482 209.5 449.0Q178 416 178 360V235Q178 179 209.5 146.0Q241 113 298 113Z"/>
    <path transform="translate(4200, 0)" d="M252 -10Q167 -10 117.0 37.5Q67 85 67 162Q67 213 90.0 251.0Q113 289 154.0 310.5Q195 332 248 332H418V375Q418 482 301 482Q249 482 217.0 463.0Q185 444 183 410H93Q98 475 153.5 517.5Q209 560 301 560Q401 560 454.5 512.0Q508 464 508 378V0H419V100H417Q409 49 366.0 19.5Q323 -10 252 -10ZM274 66Q340 66 379.0 98.0Q418 130 418 185V262H258Q214 262 186.5 235.5Q159 209 159 165Q159 119 189.5 92.5Q220 66 274 66Z"/>
    <path transform="translate(4800, 0)" d="M355 0Q287 0 246.0 39.5Q205 79 205 145V468H47V550H205V705H295V550H520V468H295V145Q295 117 311.5 99.5Q328 82 355 82H515V0Z"/>
    <path transform="translate(5400, 0)" d="M300 -10Q203 -10 143.5 48.5Q84 107 84 210V340Q84 443 143.5 501.5Q203 560 300 560Q365 560 413.5 534.0Q462 508 489.0 461.0Q516 414 516 350V252H172V200Q172 139 207.0 103.5Q242 68 300 68Q350 68 382.5 87.5Q415 107 422 140H512Q503 71 445.0 30.5Q387 -10 300 -10ZM172 322H428V350Q428 415 394.5 450.5Q361 486 300 486Q239 486 205.5 450.5Q172 415 172 350Z"/>
  </g>
</svg>