<svg xmlns="http://www.w3.org/2000/svg" viewBox="0 0 180 180" width="180" height="180">
  <defs>
    <clipPath id="rounded">
      <rect width="180" height="180" rx="34"/>
    </clipPath>
  </defs>
  <g clip-path="url(#rounded)">
    <rect width="180" height="180" fill="#1A1A1C"/>
    <!-- Chevron ">" scaled to fit 180x180 canvas (180/512 = 0.3516 of the 512x512 version) -->
    <g transform="translate(9.89 50.59) scale(0.1194)">
      <path d="M85 65V152L395 304Q414 313 430.5 319.5Q447 326 455 328Q446 330 429 337Q412 344 395 352L85 505V595L515 380V280Z" fill="#4ADE80"/>
    </g>
    <!-- "d" lettermark scaled to fit 180x180 canvas -->
    <g transform="translate(56.67 3.07) scale(0.3396)">
      <path d="
        M 304 88
        L 304 424
        Q 304 432 296 432
        L 288 432
        Q 280 432 280 424
        L 280 380
        C 260 406 228 420 192 420
        C 118 420 64 358 64 280
        C 64 202 118 140 192 140
        C 228 140 260 154 280 180
        L 280 88
        Q 280 80 288 80
        L 296 80
        Q 304 80 304 88
        Z
        M 192 380
        C 244 380 280 338 280 280
        C 280 222 244 180 192 180
        C 140 180 104 222 104 280
        C 104 338 140 380 192 380
        Z
      " fill="#4ADE80" fill-rule="evenodd"/>
    </g>
  </g>
</svg>
