<svg xmlns="http://www.w3.org/2000/svg" viewBox="0 0 180 180" width="180" height="180">
  <defs>
    <clipPath id="rounded">
      <rect width="180" height="180" rx="34"/>
    </clipPath>
  </defs>
  <g clip-path="url(#rounded)">
    <rect width="180" height="180" fill="#1A1A1C"/>
    <path d="
      M 107.0 31.0
      L 107.0 149.1
      Q 107.0 151.9 104.2 151.9
      L 101.4 151.9
      Q 98.6 151.9 98.6 149.1
      L 98.6 133.6
      C 91.5 142.7 80.3 147.7 67.5 147.7
      C 41.5 147.7 22.5 125.9 22.5 98.4
      C 22.5 71.0 41.5 49.2 67.5 49.2
      C 80.3 49.2 91.5 54.2 98.6 63.3
      L 98.6 31.0
      Q 98.6 28.1 101.4 28.1
      L 104.2 28.1
      Q 107.0 28.1 107.0 31.0
      Z
      M 67.5 133.6
      C 85.8 133.6 98.6 118.8 98.6 98.4
      C 98.6 78.0 85.8 63.3 67.5 63.3
      C 49.2 63.3 36.6 78.0 36.6 98.4
      C 36.6 118.8 49.2 133.6 67.5 133.6
      Z
    " fill="#4ADE80" fill-rule="evenodd"/>
  </g>
</svg>
